<svg id="Layer_1" data-name="Layer 1" xmlns="http://www.w3.org/2000/svg" width="56" height="56" viewBox="0 0 56 56">
  <defs>
    <style>
      .cls-1 {
        fill: #231f20;
      }
    </style>
  </defs>
  <title>a</title>
  <g id="_Group_" data-name="&lt;Group&gt;">
    <g id="_Group_2" data-name="&lt;Group&gt;">
      <path class="cls-1" d="M28,41.62a13.6,13.6,0,1,1,13.6-13.6A13.613,13.613,0,0,1,28,41.62Zm0-25.312A11.715,11.715,0,1,0,39.714,28.023,11.728,11.728,0,0,0,28,16.308Z"/>
    </g>
    <g id="_Group_3" data-name="&lt;Group&gt;">
      <path class="cls-1" d="M15.406,16.347a0.937,0.937,0,0,1-.665-0.276L9.953,11.283a0.941,0.941,0,1,1,1.331-1.331l4.787,4.788A0.941,0.941,0,0,1,15.406,16.347Z"/>
    </g>
    <g id="_Group_4" data-name="&lt;Group&gt;">
      <path class="cls-1" d="M45.381,46.323a0.937,0.937,0,0,1-.665-0.276L39.929,41.26a0.941,0.941,0,1,1,1.331-1.331l4.787,4.787A0.941,0.941,0,0,1,45.381,46.323Z"/>
    </g>
    <g id="_Group_5" data-name="&lt;Group&gt;">
      <path class="cls-1" d="M10.619,46.323a0.941,0.941,0,0,1-.665-1.607l4.787-4.787a0.941,0.941,0,1,1,1.331,1.331l-4.787,4.787A0.937,0.937,0,0,1,10.619,46.323Z"/>
    </g>
    <g id="_Group_6" data-name="&lt;Group&gt;">
      <path class="cls-1" d="M40.594,16.347a0.941,0.941,0,0,1-.665-1.607l4.787-4.788a0.941,0.941,0,1,1,1.331,1.331L41.26,16.071A0.937,0.937,0,0,1,40.594,16.347Z"/>
    </g>
    <g id="_Group_7" data-name="&lt;Group&gt;">
      <path class="cls-1" d="M10.188,28.941H0.941a0.941,0.941,0,1,1,0-1.883h9.247A0.941,0.941,0,0,1,10.188,28.941Z"/>
    </g>
    <g id="_Group_8" data-name="&lt;Group&gt;">
      <path class="cls-1" d="M55.059,28.941H45.812a0.941,0.941,0,1,1,0-1.883h9.247A0.941,0.941,0,0,1,55.059,28.941Z"/>
    </g>
    <g id="_Group_9" data-name="&lt;Group&gt;">
      <path class="cls-1" d="M28,11.13a0.942,0.942,0,0,1-.941-0.941V0.941a0.941,0.941,0,1,1,1.883,0v9.248A0.942,0.942,0,0,1,28,11.13Z"/>
    </g>
    <g id="_Group_10" data-name="&lt;Group&gt;">
      <path class="cls-1" d="M28,56a0.942,0.942,0,0,1-.941-0.941V45.812a0.941,0.941,0,0,1,1.883,0v9.247A0.942,0.942,0,0,1,28,56Z"/>
    </g>
  </g>
</svg>
